<svg width="255" height="102" viewBox="0 0 255 102" fill="none" xmlns="http://www.w3.org/2000/svg">
  <g filter="url(#filter0_d_13_227)">
    <path d="M166.992 22.2803L154.481 46.3037L166.968 69.5967L128.114 93.9941L89.0225 69.5996L101.588 46.3037L88.998 22.2764L128.113 0L166.992 22.2803ZM114.596 58.2012L128.101 83.9746L141.491 58.2578L128 49.5654L114.596 58.2012ZM98.6016 68.5049L120.323 82.0605L109.531 61.4639L98.6016 68.5049ZM135.875 82.0352L157.409 68.5127L146.558 61.5215L135.875 82.0352ZM149.341 56.1768L154.877 59.7432L151.127 52.7461L149.341 56.1768ZM101.174 59.71L106.735 56.127L104.947 52.7148L101.174 59.71ZM133.539 45.9971L144.274 52.9131L147.695 46.3447L143.923 39.3076L133.539 45.9971ZM108.383 46.3447L111.8 52.8652L122.46 45.9971L112.152 39.3564L108.383 46.3447ZM115.009 34.0596L128 42.4287L141.079 34.002L128.1 9.78906L115.009 34.0596ZM105.023 39.9336L107.093 36.0977L100.935 32.1299L105.023 39.9336ZM148.983 36.0479L151.05 39.9023L155.113 32.0986L148.983 36.0479ZM98.7842 23.6074L109.95 30.8008L120.501 11.2393L98.7842 23.6074ZM146.14 30.7422L157.228 23.5986L135.696 11.2607L146.14 30.7422Z" fill="white"/>
  </g>
  <g filter="url(#filter1_d_13_227)">
    <path d="M135.27 4.10156L166.991 22.2803L154.481 46.3037L166.968 69.5967L128.114 93.9941L89.0225 69.5996L101.588 46.3037L88.998 22.2764L128.113 0L135.27 4.10156ZM108.383 46.3447L128.101 83.9746L147.695 46.3447L128.1 9.78906L108.383 46.3447ZM96.9766 67.4912L120.323 82.0605L104.947 52.7148L96.9766 67.4912ZM135.875 82.0352L159.032 67.4941L158.075 65.709L151.127 52.7461L135.875 82.0352ZM97.001 24.623L105.023 39.9336L120.501 11.2393L97.001 24.623ZM151.05 39.9023L159.008 24.6191L135.697 11.2617L151.05 39.9023Z" fill="url(#paint0_linear_13_227)"/>
  </g>
  <g filter="url(#filter2_d_13_227)">
    <path d="M62.0312 70.4551C59.8854 70.4551 58.25 70.1842 57.125 69.6426C56.0208 69.1009 55.2708 68.2155 54.875 66.9863C54.5 65.7572 54.3125 64.1217 54.3125 62.0801V34.0176C54.3125 31.9342 54.5 30.2884 54.875 29.0801C55.2708 27.8509 56.0208 26.9759 57.125 26.4551C58.25 25.9134 59.8854 25.6426 62.0312 25.6426H76.7188C77.2188 25.6426 77.5938 25.7259 77.8438 25.8926C78.3854 26.2676 78.9479 26.7155 79.5312 27.2363C80.1146 27.7572 80.7292 28.3822 81.375 29.1113C81.5833 29.3822 81.6875 29.6009 81.6875 29.7676C81.6875 29.9551 81.5833 30.1634 81.375 30.3926C80.7292 31.1217 80.1146 31.7467 79.5312 32.2676C78.9479 32.7884 78.3854 33.2363 77.8438 33.6113C77.5521 33.778 77.1771 33.8613 76.7188 33.8613H67.9688C66.5938 33.8613 65.6562 34.153 65.1562 34.7363C64.6562 35.3197 64.4062 36.3197 64.4062 37.7363V43.7988H75.625C76.125 43.7988 76.5 43.8822 76.75 44.0488C77.2917 44.4238 77.8542 44.8717 78.4375 45.3926C79.0208 45.9134 79.6354 46.5384 80.2812 47.2676C80.4896 47.5384 80.5938 47.7572 80.5938 47.9238C80.5938 48.1113 80.4896 48.3197 80.2812 48.5488C79.6354 49.278 79.0208 49.903 78.4375 50.4238C77.8542 50.9447 77.2917 51.3926 76.75 51.7676C76.4583 51.9342 76.0833 52.0176 75.625 52.0176H64.4062V58.3301C64.4062 59.7259 64.6562 60.7259 65.1562 61.3301C65.6562 61.9342 66.5938 62.2363 67.9688 62.2363H77.75C78.25 62.2363 78.625 62.3197 78.875 62.4863C79.4167 62.8613 79.9792 63.3092 80.5625 63.8301C81.1458 64.3509 81.7604 64.9759 82.4062 65.7051C82.6146 65.9759 82.7188 66.1947 82.7188 66.3613C82.7188 66.5488 82.6146 66.7572 82.4062 66.9863C81.7604 67.7155 81.1458 68.3405 80.5625 68.8613C79.9792 69.3822 79.4167 69.8301 78.875 70.2051C78.5833 70.3717 78.2083 70.4551 77.75 70.4551H62.0312Z" fill="white"/>
  </g>
  <g filter="url(#filter3_d_13_227)">
    <path d="M13.5312 68.7988C13.5312 69.4238 13.4062 69.8613 13.1562 70.1113C12.9271 70.3405 12.5104 70.4551 11.9062 70.4551H5.625C5.04167 70.4551 4.625 70.3405 4.375 70.1113C4.125 69.8613 4 69.4238 4 68.7988V29.2051C4 27.9759 4.23958 27.0801 4.71875 26.5176C5.19792 25.9342 6.04167 25.6426 7.25 25.6426H10.1562C11.2188 25.6426 12.2188 25.7884 13.1562 26.0801C14.1146 26.3509 15.125 26.9759 16.1875 27.9551C17.2708 28.9342 18.5208 30.4551 19.9375 32.5176C21.375 34.5592 23.1042 37.3509 25.125 40.8926C27.0625 44.2676 28.6146 46.9655 29.7812 48.9863C30.9688 51.0072 31.8854 52.5488 32.5312 53.6113C33.1771 54.6738 33.6562 55.4342 33.9688 55.8926C34.3021 56.3509 34.5729 56.7259 34.7812 57.0176V30.6426C34.7812 30.0384 34.875 29.5801 35.0625 29.2676C35.9583 27.8926 37.1979 26.4447 38.7812 24.9238C39.0938 24.6738 39.3542 24.5488 39.5625 24.5488C39.7917 24.5488 40.0417 24.6738 40.3125 24.9238C41.1667 25.7155 41.8854 26.4759 42.4688 27.2051C43.0729 27.9134 43.5938 28.6009 44.0312 29.2676C44.2188 29.6009 44.3125 30.0592 44.3125 30.6426V67.8613C44.3125 68.7988 44.1354 69.4655 43.7812 69.8613C43.4271 70.2572 42.7812 70.4551 41.8438 70.4551H38.8438C37.9479 70.4551 37.0312 70.3092 36.0938 70.0176C35.1562 69.7051 34.0938 69.0176 32.9062 67.9551C31.7188 66.8717 30.3125 65.1947 28.6875 62.9238C27.0625 60.653 25.1042 57.5488 22.8125 53.6113C20.875 50.2572 19.3229 47.5905 18.1562 45.6113C17.0104 43.6322 16.1354 42.1426 15.5312 41.1426C14.9271 40.1217 14.4896 39.4134 14.2188 39.0176C13.9479 38.6009 13.7188 38.2884 13.5312 38.0801V68.7988Z" fill="white"/>
  </g>
  <g filter="url(#filter4_d_13_227)">
    <path d="M233.437 71.2051C230.792 71.2051 228.594 70.9655 226.844 70.4863C225.114 70.0072 223.719 69.4134 222.656 68.7051C221.614 67.9759 220.812 67.2572 220.25 66.5488C220.062 66.278 219.896 66.0176 219.75 65.7676C219.604 65.5176 219.5 65.2363 219.437 64.9238C219.354 64.5072 219.271 63.9655 219.187 63.2988C219.104 62.6113 219.094 61.8197 219.156 60.9238C219.177 60.5488 219.25 60.2884 219.375 60.1426C219.521 59.9759 219.76 59.8509 220.094 59.7676C220.698 59.6217 221.479 59.4967 222.437 59.3926C223.417 59.2676 224.114 59.2051 224.531 59.2051C224.969 59.2051 225.323 59.2884 225.594 59.4551C225.864 59.6217 226.187 59.903 226.562 60.2988C226.979 60.7363 227.698 61.2988 228.719 61.9863C229.739 62.653 231.312 62.9863 233.437 62.9863C235.479 62.9863 237.021 62.5592 238.062 61.7051C239.104 60.8509 239.625 59.6634 239.625 58.1426C239.625 57.3301 239.375 56.5697 238.875 55.8613C238.396 55.1322 237.51 54.4134 236.219 53.7051C234.927 52.9759 233.083 52.2155 230.687 51.4238C226.729 50.0905 223.875 48.4342 222.125 46.4551C220.375 44.4759 219.5 41.7259 219.5 38.2051C219.5 35.2884 220.208 32.8509 221.625 30.8926C223.042 28.9342 225 27.4551 227.5 26.4551C230 25.4551 232.885 24.9551 236.156 24.9551C238.677 24.9551 240.76 25.2572 242.406 25.8613C244.073 26.4447 245.364 27.1113 246.281 27.8613C247.198 28.5905 247.792 29.1842 248.062 29.6426C248.229 29.9134 248.333 30.1217 248.375 30.2676C248.437 30.3926 248.479 30.5697 248.5 30.7988C248.562 31.4447 248.583 32.1634 248.562 32.9551C248.542 33.7467 248.469 34.6426 248.344 35.6426C248.281 35.9759 248.167 36.2051 248 36.3301C247.854 36.4342 247.625 36.4863 247.312 36.4863C245.292 36.528 243.729 36.4238 242.625 36.1738C242.187 36.0697 241.896 35.9655 241.75 35.8613C241.604 35.7572 241.417 35.5905 241.187 35.3613C240.854 34.9655 240.323 34.5072 239.594 33.9863C238.885 33.4447 237.739 33.1738 236.156 33.1738C233.969 33.1738 232.417 33.6738 231.5 34.6738C230.583 35.653 230.125 36.7572 230.125 37.9863C230.125 39.4447 230.802 40.5905 232.156 41.4238C233.51 42.2363 235.646 43.1634 238.562 44.2051C241 45.0592 243.094 45.9863 244.844 46.9863C246.594 47.9863 247.927 49.2676 248.844 50.8301C249.781 52.3926 250.25 54.4551 250.25 57.0176C250.25 60.2051 249.51 62.8509 248.031 64.9551C246.573 67.0592 244.573 68.6322 242.031 69.6738C239.51 70.6947 236.646 71.2051 233.437 71.2051Z" fill="white"/>
  </g>
  <g filter="url(#filter5_d_13_227)">
    <path d="M193.125 71.2051C189.208 71.2051 185.865 70.6947 183.094 69.6738C180.344 68.653 178.24 66.8613 176.781 64.2988C175.344 61.7363 174.625 58.1426 174.625 53.5176V30.6426C174.625 30.0384 174.729 29.5801 174.938 29.2676C175.875 27.8926 177.188 26.4447 178.875 24.9238C179.188 24.6738 179.458 24.5488 179.688 24.5488C179.938 24.5488 180.198 24.6738 180.469 24.9238C181.385 25.7155 182.156 26.4759 182.781 27.2051C183.406 27.9134 183.948 28.6009 184.406 29.2676C184.615 29.6009 184.719 30.0592 184.719 30.6426V51.9551C184.719 54.9342 185.031 57.2051 185.656 58.7676C186.302 60.3092 187.25 61.3613 188.5 61.9238C189.75 62.4863 191.292 62.7676 193.125 62.7676C195 62.7676 196.562 62.4863 197.812 61.9238C199.062 61.3613 200 60.3092 200.625 58.7676C201.25 57.2051 201.562 54.9342 201.562 51.9551V30.6426C201.562 30.0384 201.667 29.5801 201.875 29.2676C202.812 27.8926 204.125 26.4447 205.812 24.9238C206.125 24.6738 206.396 24.5488 206.625 24.5488C206.875 24.5488 207.135 24.6738 207.406 24.9238C208.323 25.7155 209.094 26.4759 209.719 27.2051C210.344 27.9134 210.885 28.6009 211.344 29.2676C211.552 29.6009 211.656 30.0592 211.656 30.6426V53.5176C211.656 58.1426 210.865 61.7363 209.281 64.2988C207.698 66.8613 205.51 68.653 202.719 69.6738C199.948 70.6947 196.75 71.2051 193.125 71.2051Z" fill="white"/>
  </g>
  <defs>
    <filter id="filter0_d_13_227" x="84.998" y="0" width="85.9941" height="101.994" filterUnits="userSpaceOnUse" color-interpolation-filters="sRGB">
      <feFlood flood-opacity="0" result="BackgroundImageFix"/>
      <feColorMatrix in="SourceAlpha" type="matrix" values="0 0 0 0 0 0 0 0 0 0 0 0 0 0 0 0 0 0 127 0" result="hardAlpha"/>
      <feOffset dy="4"/>
      <feGaussianBlur stdDeviation="2"/>
      <feComposite in2="hardAlpha" operator="out"/>
      <feColorMatrix type="matrix" values="0 0 0 0 0 0 0 0 0 0 0 0 0 0 0 0 0 0 0.25 0"/>
      <feBlend mode="normal" in2="BackgroundImageFix" result="effect1_dropShadow_13_227"/>
      <feBlend mode="normal" in="SourceGraphic" in2="effect1_dropShadow_13_227" result="shape"/>
    </filter>
    <filter id="filter1_d_13_227" x="84.998" y="0" width="85.9932" height="101.994" filterUnits="userSpaceOnUse" color-interpolation-filters="sRGB">
      <feFlood flood-opacity="0" result="BackgroundImageFix"/>
      <feColorMatrix in="SourceAlpha" type="matrix" values="0 0 0 0 0 0 0 0 0 0 0 0 0 0 0 0 0 0 127 0" result="hardAlpha"/>
      <feOffset dy="4"/>
      <feGaussianBlur stdDeviation="2"/>
      <feComposite in2="hardAlpha" operator="out"/>
      <feColorMatrix type="matrix" values="0 0 0 0 0 0 0 0 0 0 0 0 0 0 0 0 0 0 0.25 0"/>
      <feBlend mode="normal" in2="BackgroundImageFix" result="effect1_dropShadow_13_227"/>
      <feBlend mode="normal" in="SourceGraphic" in2="effect1_dropShadow_13_227" result="shape"/>
    </filter>
    <filter id="filter2_d_13_227" x="50.3125" y="25.6426" width="36.4062" height="52.8125" filterUnits="userSpaceOnUse" color-interpolation-filters="sRGB">
      <feFlood flood-opacity="0" result="BackgroundImageFix"/>
      <feColorMatrix in="SourceAlpha" type="matrix" values="0 0 0 0 0 0 0 0 0 0 0 0 0 0 0 0 0 0 127 0" result="hardAlpha"/>
      <feOffset dy="4"/>
      <feGaussianBlur stdDeviation="2"/>
      <feComposite in2="hardAlpha" operator="out"/>
      <feColorMatrix type="matrix" values="0 0 0 0 0 0 0 0 0 0 0 0 0 0 0 0 0 0 0.25 0"/>
      <feBlend mode="normal" in2="BackgroundImageFix" result="effect1_dropShadow_13_227"/>
      <feBlend mode="normal" in="SourceGraphic" in2="effect1_dropShadow_13_227" result="shape"/>
    </filter>
    <filter id="filter3_d_13_227" x="0" y="24.5488" width="48.3125" height="53.9062" filterUnits="userSpaceOnUse" color-interpolation-filters="sRGB">
      <feFlood flood-opacity="0" result="BackgroundImageFix"/>
      <feColorMatrix in="SourceAlpha" type="matrix" values="0 0 0 0 0 0 0 0 0 0 0 0 0 0 0 0 0 0 127 0" result="hardAlpha"/>
      <feOffset dy="4"/>
      <feGaussianBlur stdDeviation="2"/>
      <feComposite in2="hardAlpha" operator="out"/>
      <feColorMatrix type="matrix" values="0 0 0 0 0 0 0 0 0 0 0 0 0 0 0 0 0 0 0.25 0"/>
      <feBlend mode="normal" in2="BackgroundImageFix" result="effect1_dropShadow_13_227"/>
      <feBlend mode="normal" in="SourceGraphic" in2="effect1_dropShadow_13_227" result="shape"/>
    </filter>
    <filter id="filter4_d_13_227" x="215.116" y="24.9551" width="39.134" height="54.25" filterUnits="userSpaceOnUse" color-interpolation-filters="sRGB">
      <feFlood flood-opacity="0" result="BackgroundImageFix"/>
      <feColorMatrix in="SourceAlpha" type="matrix" values="0 0 0 0 0 0 0 0 0 0 0 0 0 0 0 0 0 0 127 0" result="hardAlpha"/>
      <feOffset dy="4"/>
      <feGaussianBlur stdDeviation="2"/>
      <feComposite in2="hardAlpha" operator="out"/>
      <feColorMatrix type="matrix" values="0 0 0 0 0 0 0 0 0 0 0 0 0 0 0 0 0 0 0.25 0"/>
      <feBlend mode="normal" in2="BackgroundImageFix" result="effect1_dropShadow_13_227"/>
      <feBlend mode="normal" in="SourceGraphic" in2="effect1_dropShadow_13_227" result="shape"/>
    </filter>
    <filter id="filter5_d_13_227" x="170.625" y="24.5488" width="45.0312" height="54.6562" filterUnits="userSpaceOnUse" color-interpolation-filters="sRGB">
      <feFlood flood-opacity="0" result="BackgroundImageFix"/>
      <feColorMatrix in="SourceAlpha" type="matrix" values="0 0 0 0 0 0 0 0 0 0 0 0 0 0 0 0 0 0 127 0" result="hardAlpha"/>
      <feOffset dy="4"/>
      <feGaussianBlur stdDeviation="2"/>
      <feComposite in2="hardAlpha" operator="out"/>
      <feColorMatrix type="matrix" values="0 0 0 0 0 0 0 0 0 0 0 0 0 0 0 0 0 0 0.25 0"/>
      <feBlend mode="normal" in2="BackgroundImageFix" result="effect1_dropShadow_13_227"/>
      <feBlend mode="normal" in="SourceGraphic" in2="effect1_dropShadow_13_227" result="shape"/>
    </filter>
    <linearGradient id="paint0_linear_13_227" x1="128" y1="3.45508" x2="128" y2="90.4551" gradientUnits="userSpaceOnUse">
      <stop stop-color="#B374FF" offset=""/>
      <stop offset="1" stop-color="#006FFF"/>
    </linearGradient>
  </defs>
</svg>
